# xmcd
# 
# Track frame offsets:
#     150
#     2800
#     52460
#     83877
#     119110
#     145375
#     180190
#     223997
#     251602
#     254657
#     264355
#     275457
#     284705
#     301787
# 
# Disc length: 4229
# 
# Revision: 2
# Processed by: cddbd v1.5.2PL0 Copyright (c) Steve Scherf et al.
# Submitted via: BonkEnc v1.0
# 
DISCID=e010830e
DTITLE=金月龍之介 - DRAMA CD TALES OF PHANTASIA CHAPTER.1
DYEAR=0
DGENRE=
TTITLE0=草尾毅ほか/Track 1
TTITLE1=草尾毅ほか/Track 2
TTITLE2=草尾毅ほか/Track 3
TTITLE3=草尾毅ほか/Track 4
TTITLE4=草尾毅ほか/Track 5
TTITLE5=草尾毅ほか/Track 6
TTITLE6=草尾毅ほか/Track 7
TTITLE7=草尾毅ほか/Track 8
TTITLE8=草尾毅ほか/Track 9
TTITLE9=草尾毅ほか/Track 10
TTITLE10=草尾毅ほか/Track 11
TTITLE11=草尾毅ほか/Track 12
TTITLE12=金月龍之介/Track 13 ふじばやしすずのにんじゃにっき 〜変化の術〜
TTITLE13=草尾毅ほか/Track 14 〜高飛びの術〜
EXTD=
EXTT0=
EXTT1=
EXTT2=
EXTT3=
EXTT4=
EXTT5=
EXTT6=
EXTT7=
EXTT8=
EXTT9=
EXTT10=
EXTT11=
EXTT12=
EXTT13=
PLAYORDER=
